# xmcd
#
# Track frame offsets:
#	150
#	12355
#	24004
#	33953
#	44918
#	55942
#	69178
#	82119
#	94574
#	106715
#	120634
#	132951
#
# Disc length: 1933 seconds
#
# Revision: 2
# Processed by: cddbd v1.5.2PL0 Copyright (c) Steve Scherf et al.
# Submitted via: audiograbber 1.83.01
#
DISCID=90078b0c
DTITLE=Various Country - Grand Ole' Country
DYEAR=1900
DGENRE=Country
TTITLE0=Hank Williams - Your Cheatin' Heart
TTITLE1=Roy Rogers - Yellow Rose Of Texas
TTITLE2=Hank Snow - Down The Trail Of The Aching Hearts
TTITLE3=Slim Whitman - Keep It A Secret
TTITLE4=Porter Wagoner - Itchin' For My Baby
TTITLE5=Red Foley - Smoke On The Water
TTITLE6=Roy Acuff - Mule Skinner Blues
TTITLE7=Jimmy Wakely - Beautiful Brown Eyes
TTITLE8=Ted Daffan's Texans - Born To Lose
TTITLE9=Ernie Ford - Mule Train Tennessee
TTITLE10=Tex Ritter - The Gallows Pole
TTITLE11=Burl Ives - Big Rock Candy Mountain
EXTD=
EXTT0=
EXTT1=
EXTT2=
EXTT3=
EXTT4=
EXTT5=
EXTT6=
EXTT7=
EXTT8=
EXTT9=
EXTT10=
EXTT11=
PLAYORDER=
